<svg width="25" height="23" viewBox="0 0 25 23" fill="none" xmlns="http://www.w3.org/2000/svg">
<path d="M12 2.52808C17.4547 2.52808 22.1136 5.9118 24.001 10.6882C22.1136 15.4648 17.4548 18.8484 12 18.8484C6.54543 18.8482 1.8873 15.4646 0 10.6882C1.88734 5.91194 6.5455 2.52827 12 2.52808ZM12 5.40796C9.08381 5.40796 6.71973 7.77205 6.71973 10.6882L6.72656 10.9597C6.86334 13.6598 9.02841 15.825 11.7285 15.9617L12 15.9685C14.8251 15.9685 17.1321 13.7497 17.2734 10.9597L17.2803 10.6882C17.2803 7.86313 15.0615 5.55614 12.2715 5.41479L12 5.40796ZM12 6.90796C14.0877 6.90801 15.7803 8.60051 15.7803 10.6882C15.7802 12.7759 14.0877 14.4685 12 14.4685C9.91226 14.4685 8.21976 12.776 8.21973 10.6882C8.21973 8.60047 9.91224 6.90796 12 6.90796Z" fill="#D1D5DB"/>
<rect width="2.14609" height="27.8991" rx="1.07304" transform="matrix(0.630432 0.776245 -0.686597 0.727039 22.1562 -0.471924)" fill="#D1D5DB"/>
<rect width="2.14609" height="27.8991" rx="1.07304" transform="matrix(0.630432 0.776245 -0.686597 0.727039 23.5098 1.19409)" fill="white"/>
</svg>
