<svg width="18" height="18" viewBox="0 0 18 18" fill="none" xmlns="http://www.w3.org/2000/svg">
<path d="M9 0C13.9706 0 18 4.02944 18 9C18 13.9706 13.9706 18 9 18C4.02944 18 0 13.9706 0 9C0 4.02944 4.02944 0 9 0ZM12.8027 5.19727C12.5099 4.9044 12.0351 4.90445 11.7422 5.19727L9 7.93945L6.25781 5.19727C5.96491 4.90445 5.49013 4.9044 5.19727 5.19727C4.9044 5.49013 4.90445 5.96491 5.19727 6.25781L7.93945 9L5.19727 11.7422C4.90437 12.0351 4.90437 12.5098 5.19727 12.8027C5.49016 13.0956 5.96492 13.0956 6.25781 12.8027L9 10.0605L11.7422 12.8027C12.0351 13.0956 12.5098 13.0956 12.8027 12.8027C13.0956 12.5098 13.0956 12.0351 12.8027 11.7422L10.0605 9L12.8027 6.25781C13.0956 5.96491 13.0956 5.49013 12.8027 5.19727Z" fill="#D1D5DB"/>
</svg>
