<svg width="23" height="18" viewBox="0 0 23 18" fill="none" xmlns="http://www.w3.org/2000/svg">
<path d="M1.41406 8.70703L0.706956 7.99992L-0.000151038 8.70703L0.706956 9.41414L1.41406 8.70703ZM21.9141 9.70703C22.4663 9.70703 22.9141 9.25932 22.9141 8.70703C22.9141 8.15475 22.4663 7.70703 21.9141 7.70703V8.70703V9.70703ZM9.41406 0.707031L8.70696 -7.55191e-05L0.706956 7.99992L1.41406 8.70703L2.12117 9.41414L10.1212 1.41414L9.41406 0.707031ZM1.41406 8.70703L0.706956 9.41414L8.70696 17.4141L9.41406 16.707L10.1212 15.9999L2.12117 7.99992L1.41406 8.70703ZM1.41406 8.70703V9.70703H21.9141V8.70703V7.70703H1.41406V8.70703Z" fill="#3C3C3C"/>
</svg>
