<svg width="24" height="17" viewBox="0 0 24 17" fill="none" xmlns="http://www.w3.org/2000/svg">
<path d="M12 0C17.4547 0 22.1136 3.38372 24.001 8.16016C22.1136 12.9367 17.4548 16.3203 12 16.3203C6.54543 16.3201 1.8873 12.9365 0 8.16016C1.88734 3.38386 6.5455 0.000197365 12 0ZM12 2.87988C9.08381 2.87988 6.71973 5.24397 6.71973 8.16016L6.72656 8.43164C6.86334 11.1317 9.02841 13.2969 11.7285 13.4336L12 13.4404C14.8251 13.4404 17.1321 11.2216 17.2734 8.43164L17.2803 8.16016C17.2803 5.33505 15.0615 3.02807 12.2715 2.88672L12 2.87988ZM12 4.37988C14.0877 4.37993 15.7803 6.07243 15.7803 8.16016C15.7802 10.2479 14.0877 11.9404 12 11.9404C9.91226 11.9404 8.21976 10.2479 8.21973 8.16016C8.21973 6.0724 9.91224 4.37988 12 4.37988Z" fill="#D1D5DB"/>
</svg>
